<?xml version="1.0" encoding="utf-8"?>
<!-- Generator: Adobe Illustrator 16.0.0, SVG Export Plug-In . SVG Version: 6.00 Build 0)  -->
<!DOCTYPE svg PUBLIC "-//W3C//DTD SVG 1.1//EN" "http://www.w3.org/Graphics/SVG/1.1/DTD/svg11.dtd">
<svg version="1.1" id="Layer_1" xmlns="http://www.w3.org/2000/svg" xmlns:xlink="http://www.w3.org/1999/xlink" x="0px" y="0px"
	 width="99.42px" height="170.975px" viewBox="0 -0.004 99.42 170.975" enable-background="new 0 -0.004 99.42 170.975"
	 xml:space="preserve">
<path fill="#FEF9D6" d="M96.74,95.02c-1.04-2.55-5.301-1.09-3.85-4.94c1.01-2.66,3.76-1.2,6.529-1.34
	c-1.939-11.09-2.79-20.93-7.62-30.92c3.54,2.68,4.49-4.73-0.659-6.66c-2.24-0.84-1.871-1.5-2.011-3.95c1.5,0.71-1.04-7.1-1.229-8.24
	c1.49,0.87,0.81-7.09,0.75-9.03c-0.121-4.17-4.4-5.58-7.631-6.94c-1.16-0.49-2.34-0.94-3.529-1.34c0.51-1.65,1.48-3.92-1.551-3.4
	c-1.33-1.91-0.189-5.55-3.399-4.84c0.05,0.4,0.16,0.72-0.101,1.13c2.65-0.68-0.42,1.81-0.83,2.37c0.83,0.29,1.511,0.09,2.061-0.62
	c1.301,2.58,2.07,3.13,0.41,4.74c0.93-0.36,1.79-0.84,2.58-1.44c1.439,0.61-10.52,7.84-10.31,8.34c5.46-1.07,7.56-6.72,12.57-3.81
	c2.42,1.1,5.59,1.28,7.52,3.3c2.391,2.5,0.031,5.89,0.521,8.76c-3.38-1.59-0.7-4.72-1.66-5.67c-2.43,0.57-1.12-2.22-2.68-1.75
	c-0.87,1.94,0.81,5.37,1.64,7.07c1.551,3.17,2.83,4.77,3.721,8.7c-2.01-1.2-4.09-2.45-5.66-3.92c-0.791,1.84,2.729,4.19,3.9,4.91
	C89.41,47.5,87,50.54,88.51,53.71c-3.93-1.16-9.4,2.83-8.449,6.8c-2.91-1.72-11.301-1.14-8.961,4.12
	c-2.189-3.79-11.439-1.88-10.51,3.09c-1.11-4.04-4.78-1.05-6.7-3.92c2.91-0.93,5.36-2.75,8.31-3.42c2.77-0.63,8.579-1.6,10.53-3.81
	c2.31-2.63,8.899-14.63,4.449-17.39c-0.13,0.13,0.631,4.67,0.51,5.15c-0.799,3.12-3.5,5.23-4.739,8.14
	c-1.39,3.25-1.681,4.9-5.66,4.64c0.18-0.04,0.12-2.79-0.31-3.09c-1.45,2-1.29,3.98-3.71,5.25c0.28-0.97,1.07-2.87,0.41-3.81
	c-2.17,0.93-0.44,4.13-3.61,4.53c0.25-0.72,1.14-3.14-0.1-3.4c-0.73,2.56-2.07,4.58-4.64,5.56c0.33-1.64,0.95-1.78,0.1-2.37
	c-2.54,1.66-1.61,2.34-4.94,2.57c-0.08-1.01,2.06-3.5,2.48-4.02c-0.96-0.29-4.9,3.09-6.6,3.19c-2.45-0.7-5.69,0.25-7.52-0.62
	c-3.27-1.07-4.37,2.52-7.11-0.72c-0.15-1.85,5.59-1.29,6.39-2.99c-1.99-0.86-6.14,1.23-7.84,2.17c-2.66-1.93-0.1-1.05-2.36-2.17
	c-1.1-5.03,10.46-2.36,11.95-2.58c4.81-0.39,8.56-1.91,12.32-5.04c1.53-1.27,5.78-7.54,2.93-9.08c-1.06,1.32-1.58,2.83-1.55,4.53
	c-1.53-2.32-0.13-4.83,1.34-6.67c-4.29,0.48-3.25,5.68-1.96,8.34c-3.48,1.48-2.28-9.63-2.48-9.69c-1.03,1.33-1.54,2.84-1.54,4.53
	c-8.17-10.72,17.99-8.62,16.9-13.8c-2.4-0.72-13.77,7.93-15.56,4.33c2.53-2.06,21.77-4.81,20.5-9.16
	C65.79,23.42,51.43,36.82,48.21,27.84c3.43-0.98,10.34-1.89,12.88-4.43c-0.09-0.16-0.12-0.34-0.1-0.52
	c-2.71,0.11-13.07,5.84-14.63,3.5c0.36-0.33,0.63-0.71,0.82-1.14c0.44,1.86,20.03-4.61,20.71-7.51c-0.59,0.271-1.2,0.51-1.75,0.72
	c0.87-1.24,3.25-0.36,3.51-1.96c-1.92-0.42-6.8,1.51-9.14,1.58c-5.48,0.16-10.94,0.59-16.41,1c-0.17,3.4-2.37,2.46-2.37-0.39
	c0-3.58-0.9-6.68-1.24-10.23c4.01-1.54,3.15,6.74,2.98,8.86c8.18,0.02,20.21,0.95,27.2-3.29c-2.3,0.42-25.3,4.73-25.96,1.3
	c-0.99-5.21-1.38-6.99,3.38-9.65c3.37-1.87,9-1.44,11.85,1.03c-0.5,0.15-1.44,0.18-1.85,0.51c1.65,1.91,2.3,0.36,3.81-1.63
	c1.97-2.6,6.27-2.05,9.071-2.27c0.059,2.16,0.059,6.54,1.029,7.62c2.88-2.68-0.689-5.31,0.41-8.14c-3.33-2.74-6.64,1.64-9.06-2.06
	c-1.38-1-5.05-0.95-6.49-0.1c-0.96,0.83-1.85,1.72-2.68,2.68C52,3.34,49.87,3.68,47.79,4.35c-1.21,1.15-2.55,2.11-4.02,2.89
	c-1.29-0.21-2.56-0.11-3.8,0.31c-2.08,1.12-5.29,1.73-7.62,3.14c-5.41,3.27,4.71,6.8,7.11,6.85c-0.64,0.53-9.52,0.41-3.84,3.24
	c3.07,1.53,9.8-0.1,11.35,3.47c-1.61,0.75-4.53,3.17-5.75,4.56c-2.81,3.22,0.62,3.64,0.29,6.26c-6.66,1.12-3.6-4.35-8.12-7.59
	c-3.49-2.51-6.49-4.05-10.53-1.99c-1.55-5.47,3.17-15.69-4.92-15.36c-4.14,0.17-4.76-1.19-4.75,3.35c0,3.8,0,7.59,0,11.39
	c-2.27-1.76-4.08-5.27-6.63-2.37c-4.15,4.73-1.09,7.15,3.76,10.33c3.73,2.45,3.52,5.01,3.73,9.56c0.06,1.24,0.34,2.75-1.06,3.39
	c-5.05-0.33-3.28-4.74-7.94,0.56c-3.94,4.49-0.84,5.59,3.5,8.54c1.32,0.9,2.69,1.82,4.12,2.53c0.07,4.55-2.17,2.63-4.96,5.19
	c-1.95,1.78-4.9,4.79-6.37,7.33c-2.2,3.81,3.25,7.12,5.67,9.53c-7.58-1.26-8.36,9.69-2.06,10.51c-6.17,1.04-0.97,11.42,4.84,8.959
	c-0.31,4.301-0.75,8.58-0.97,12.881c-0.35,6.609,0.37,8.59,7.51,8.399c11.53-0.31,11.24-5.54,10.88-15.42
	c-0.26-7.601,11.88-8.72,11.54-14.67c-0.15-2.61-2.11-7.08-5.08-7.55c-2.92-0.46-2.67-4.14-7.07-3.64c-0.08-0.81,0.03-1.6,0.31-2.37
	c3.03,0.94,9.41,1.86,9.89-2.16c2.54,1.31,4.18,2.39,7.77,2.03c2.84-0.28,7.08-5.57,8.82-1.4c-2.51,1.4-7.43,7.63-8.65,10.09
	c2.75,1.7,2.52,1.21,0.41,4.22c1.69,0.7,5-0.37,2.68,2.78c4.81-0.74,3.03,9.021-1.11,10.83c-4.99,2.18-14.45,0.59-14.45,8.239
	c0.85-0.369,1.7-0.709,2.57-1.029c0.26,0.609-2.77,2.6-0.62,3.5c1.17-1.6,1.51-0.62,2.78-1.96c0.2,1.1-0.18,3.09,0.82,3.81
	c2.44-3.68,13.05-2.77,16.38-5.06c5.36-1.271,8.82-5.64,11.33-9.99c1.47-2.521,2.61-1.86,0.24-4.45c-0.68-0.74-2.53-3.85-0.35-4.51
	c0.61,1.27,0.98,2.62,1.13,4.02c2.5,0.08,3.63-4.259,2.99,1.75c1.2-0.289,2.45-1.319,3.3-2.169c3.68,6.81,1.02-2.14,5.17,1.94
	c2.36,2.319,1.66,7.239-0.24,9.5c-3.92,4.64-15.27,0.22-15.319,9.79c1.03,0.561,2.03,0.08,2.99-1.439
	c-1.09-0.83-0.01,5.039-0.21,4.43c0.8-0.25,2.72-1.9,3.3-2.48c0.67,1.48-0.04,3.5,2.06,4.02c0.54-2.869,6.33-3.159,8.83-3.17
	c4.52-0.01,8.061-5.119,11.76-7.239C93.46,108.77,97.8,97.59,96.74,95.02 M51.21,47.11C52.48,47.96,50.83,49.17,51.21,47.11
	 M58.93,1.36c1.5,0.02,3.45,0.63,4.43,1.75c-2.19,2.48-4.87,1.86-7.62,0.52C56.55,2.53,57.62,1.77,58.93,1.36 M40.39,20.12
	c-1.91,0.48-3.54,0.25-5.05-0.92c1.49-0.84,3.73-0.65,5.36-0.62C40.6,19.1,40.49,19.61,40.39,20.12 M40.7,16.72
	c-2-0.21-4.31,0.07-6.17-0.86c-3.54-1.77,0.57-1.52,0.71-2.75c-1.58,0.6-2.51,0.29-2.78-0.93c1.69-1.93,4.86-1.8,7.11-2.37
	C40.37,11.92,40.6,14.49,40.7,16.72C38.14,16.45,40.7,16.72,40.7,16.72z M45.02,20.12c3.57-1.56,8.87-1.1,12.68-1.07
	c2.03,0.02,4.34-0.88,7.41-0.58C62.89,21.5,45.15,26.69,45.02,20.12 M63.57,114.9c0.23-0.791,0.71-1.381,1.44-1.75
	C66.26,114.189,64.16,114.54,63.57,114.9 M94.38,56.28c-0.159,0.53-1.19,1.32-1.54,0.51C93.38,55.45,93.9,55.28,94.38,56.28
	 M89.43,52.06c1-0.13,1.721,0.21,2.17,1.03C90.37,54.2,89.65,53.86,89.43,52.06 M92.32,54.12c1.9,0.54-3.291,4.34-4.74,3.72
	C88.109,55.85,90.811,55.07,92.32,54.12 M89.02,59.06c1.16,1.14-3.47,2.91-3.91,2.78c0.17-1.14,0.711-4.28-1.959-2.77
	c-0.93-0.98,2.949-3.66,3.709-2.57C85.58,58.18,86.76,60.2,89.02,59.06 M85.51,62.77c3.42-0.7,3.471-3.43,5.26-4.64
	c2.32,3.41-6.569,7.2-7.529,4.74C84.24,62.52,84.641,62.96,85.51,62.77 M87.68,54.32c1.85,1.23-0.38,0.75-1.229,0.92
	c-3.511,0.74-3.5,3.68-5.56,4.64C79.73,56.32,85.279,55.21,87.68,54.32 M83.25,60.3c0.62,1.55-4.42,4.3-4.95,2.57
	C79.529,61.43,81.66,61.14,83.25,60.3 M79.33,64.62c0.47,1.18-2.73,2.01-3.29,2.06c0.13,0.18-2.08-3.92-1.96-3.5
	C77.41,59.38,76.04,65.02,79.33,64.62 M75.52,67.3c3.051,1.27,4.15-2.59,5.76-3.51c2.08,3.07-6.76,6.81-7.42,3.61
	C74.83,67.04,74.75,66.84,75.52,67.3 M77.07,59.78c0.699,0.03,1.64,0.48,1.959,1.13C73.85,64.46,68.05,64.29,77.07,59.78
	 M74.08,64.83c2.07,1.38-4.52,4.02-5.67,2.57C69.54,65.65,72.38,65.6,74.08,64.83 M69.13,69.05c-0.47,1.45-3.57,1.69-4.44,0.82
	c2.49-2.73-0.76-1.35-1.03-3.3c0.94-0.58,3.26-1.96,4.11-0.62C66.36,67.54,66.53,69.23,69.13,69.05 M63.88,69.98
	c1.26,3.6,6.32-0.66,7.83-1.55c-0.38,3.25-8.13,5.83-9.27,2.06C62.79,70.11,63.27,69.94,63.88,69.98 M62.13,65.24
	c1.99-1.32,6.78-3.49,7.73-0.1c-1.67,0.57-4.88-1.86-6.7,0.92C61.66,67.26,60.24,66.47,62.13,65.24 M62.33,68.23
	c0.45,0.03,0.89,0.07,1.34,0.1c-0.33,1.36-6.01,2.74-6.28,1.44C58.68,68.49,60.83,69.03,62.33,68.23 M52.44,69.36
	c0.36-0.43,4.27-2.94,4.85-0.82c-2.79,0.61-1.39,3,0.73,2.89c-0.43,1.48-3.26,1.47-4.33,1.13C53.85,70.36,54.97,70.45,52.44,69.36
	 M58.73,66.27c0.76,0.59,0.97,1.17,0.62,1.75c-1.72,0.35-2.5-1.26-4.97-0.76c-1.92,0.39-2.89,1.45-3.98,2.2
	C49.28,65.79,56.81,65.91,58.73,66.27 M39.56,64.21c0.52-3.4,6.2-1.87,9.38-2.27c-0.21,0.64-0.42,0.82-0.83,1.34
	c2.32,0.21,4.03,0.15,5.46,2.27c-0.72,0.49-4.63,4.15-4.33,4.02C46.91,69,47.18,67,43.78,67.4c-2.37,0.29-6.47-0.41-6.49,3.19
	c-1.06-2.93-7.16-2.83-7.41-3.4C32.13,66.13,38.39,66.81,39.56,64.21 M45.64,73.38c-1.82,4.19-5.24-1.89-5.04-3.1
	c1.32-0.3,2.85-0.65,4.23-0.41C45.46,72.06,42.52,71.3,45.64,73.38 M39.77,70.19c0.02,0.83-0.5,0.97-1.54,0.42
	c0.1-3.09,8.49-3.87,9.47-1.03C45.78,70.1,41.47,67.5,39.77,70.19 M33.07,74.31c-0.94,0.58-3.5,0.54-4.02-0.72
	c2.06-1.98,0.98-1.79,0.21-3.61c1.59-0.76,3.6-0.85,4.02,1.03C30.74,71.91,31.31,72.89,33.07,74.31 M28.33,69.98
	c-0.39-0.23-0.8-0.33-1.23-0.31c1.24-3.2,8.28-1.96,8.76,1.03C34.63,70.87,29.79,66.65,28.33,69.98 M35.54,65.24
	c1.09-1.4,0.14-0.95,2.58-1.95C39.37,64.32,35.87,65.22,35.54,65.24 M36.57,61.74c0.48,0.1,0.96,0.21,1.44,0.31
	c-0.53,1.14-4.79,2.73-5.77,2.99C32.91,63.03,35.19,62.96,36.57,61.74 M31.94,62.05c1.07,0.32,0.75,1.22-0.21,1.64
	C31.44,63.19,31.51,62.64,31.94,62.05 M28.74,59.89c0.13,0.88,2.74-0.45-0.62,1.23C28.33,60.71,28.53,60.3,28.74,59.89 M39.46,53.19
	c-3.57-1.15-13.44-0.94-12.88,4.74c-0.14,0.01-0.28-0.02-0.41-0.1c-1-3.48-0.09-7.18-0.31-10.72c-0.55-2.03-0.73-4.09-0.52-6.18
	c1.8-2.17,3.61-1.54,4.74,1.34c2.92,7.58,8.05,10.79,16.07,9.58C44.55,53.17,41.42,53.69,39.46,53.19 M27.51,58.75
	c-0.29,0.17-0.74,0.44-1.03,0.62C26.69,58.47,27.06,58.11,27.51,58.75 M45.13,37.22c0.99-1.99,2.67,3.44,0.41,4.85
	C44.71,40.91,47.79,37.78,45.13,37.22 M47.7,34.85c-0.21,0.55-0.41,1.1-0.62,1.65c-0.9-0.34-1.17-0.93-0.83-1.75
	C46.2,34.76,47.96,34.7,47.7,34.85C47.49,35.4,47.7,34.85,47.7,34.85z M47.91,43.81c-0.1-0.04-3.77,0.46-0.93-1.54
	C47.29,42.79,47.6,43.3,47.91,43.81 M43.38,30.93c1.52-3.12,6-0.39,3.92,1.23C47.14,29.47,45.36,28.6,43.38,30.93 M45.02,31.24
	c1.16,1.68-0.47,4.62-1.95,6.69C42.09,36.27,43.37,32.93,45.02,31.24 M45.95,45.77c-1.5,1.05-3.89-3.95-2.99-4.85
	C44.74,41.48,45.34,44.33,45.95,45.77 M43.27,45.87c0.3,0.3-1.31,3.95,1.44,5.05C39.53,54.87,42.09,41.69,43.27,45.87 M47.91,51.13
	c-0.82-0.46-1.1-1.05-0.83-1.76C48.22,49.7,48.92,50.28,47.91,51.13 M50.28,49.07c0.11-0.13,0.5,0.52-0.73,0.83
	C49.27,49.5,49.52,49.22,50.28,49.07 M49.35,47.93c-1.02,1.14-4.89-0.92-3.4,2.26c-1.24,0.14-3.01-2.04-2.47-3.3
	c0.71-0.26,1.34-0.02,1.87,0.73c2.73-0.05,0.59-1.62,1.95-2.59C48.4,45.7,49.08,46.67,49.35,47.93 M41.01,32.58
	c-4-9.56,16.55-1.25,5.67,1.55c0.45-2.02,3.06-1.31,1.37-4.2c-2.77-4.76-5.35,1.43-5.9,3.47C41.77,33.13,41.39,32.86,41.01,32.58
	 M44.61,37.94c3.55,1.24-3.36,2.28-3.28,3.61c-1.46-0.35-1.63-2.78-0.93-3.7C41.5,36.92,43.13,41.92,44.61,37.94 M38.33,37.42
	c0.55-0.98,1.83-1.58,2.88-1.65c-3.57,3.43-0.87,4.48,0.92,7.62C39.01,44.22,37.02,39.78,38.33,37.42 M22.98,26.71
	c4.08-1.66,9.79-0.41,11.47,4.54c1.01,2.98,3.63,4.62,2.55,7.21c-0.93,5.49,3.61,3.92,5.57,5.88c-3.42,2.55-1.67,3.93-0.62,7.21
	c-3.99-0.08-6.63-2.79-2.78-4.74c-1.17,0.23-3.46,1.62-4.43,0.1c0.48-0.36,3.89-0.05,3.3-1.44c-1.67-0.26-3.37,0.32-4.74-0.32
	c0.48-0.15,0.96-0.22,1.45-0.21c0.09,0.52-6.58-6.67-6.7-6.8c2.42-1.94,5.87-2.6,3.25-5.69c-2.67-3.15-2.84-4.3-6.34-1.42
	c-0.86,0.7-4.44,2.06-3.72-1.04c1.7-1.25,4.54-1.92,5.77-2.68c-2.81-0.98-6.52,3.97-8.04,1.13C20.1,27.41,21.43,26.83,22.98,26.71
	 M22.25,33.41c-0.23,0.39-0.54,0.66-0.93,0.82C21.02,32.49,21.33,32.22,22.25,33.41 M11.85,32.79c0.1,0.1,0.21,0.21,0.31,0.31
	C11.88,32.93,12.01,33.07,11.85,32.79 M8.76,53.5c-5.68-5.04-3.52-3.36-0.92-8.66c1.72,0.42,5.99,4.25,7.11,0.82
	c1.65-5.15,0.38-11.31-3.93-14.18c-1.45-0.97-6.09-3.37-5.55-5.71c3.67-4.8,4.05-1.94,7.84,1.24c1.82,0.97,1.3-7.88,1.23-9.12
	c-0.14-2.68-1.81-6.11,1.44-6.65c3.01-0.5,0.46,1.2,2.37,1.85c1.06-4.77,2.75,0.03,2.68,2.89c-0.83,0.65-0.03,7.75,0.42,9.99
	c-2.63,0.49,0.15-0.98-1.54-2.16c-0.77,1.8,0.73,2.09-1.13,3c-0.45-1.15,0.6-3.91-0.72-4.32c0.07,2.92-1.91,8.48-0.72,10.92
	c0.56,0.05,0.94-0.29,1.14-1.03c0.75,1.45,0.29,8.51,1.34,8.75c0.16-2.3-1.51-8.58,0.11-9.8c0.79,1.91-0.06,3.75,1.75,5.25
	c1.52-3,3.74-4.17,6.19-6.28c1.02,1.25,2.06,2.79,3.2,3.92c-5.96,5.04-7.26,6.14-6.41,13.84c0.32,2.92-1.29,14.54,3.11,11.51
	c-0.41-0.31-0.47,3.34-0.42,3.2c5.54-2.77,1.63-0.08,4.43,2.37c-1.96,1.63-4.38,2.3-5.77,4.33c0.81-4.43-5.1-0.95-3.09-6.07
	c-1.12,1.53-4.12,2.4-5.98,3.19c1.28-3.66-0.88-3.82-3.3-5.56C15.24,55.89,12.34,55.92,8.76,53.5 M18.96,30.62
	c-0.2,0.78-0.58,1.16-1.13,1.13C17.71,30.2,18.09,29.82,18.96,30.62 M12.05,68.23c-6.74-2.56,1.61-7.35,2.36-2.89
	C11,64.25,10.96,66.21,12.05,68.23 M12.67,66.79c0.84-1.17,6.04,1.68,5.57,2.79C16.5,70.35,13.54,67.86,12.67,66.79
	C12.77,66.65,12.67,66.79,12.67,66.79z M15.97,70.5c1.78,0.52,1.55,2.06,3.43,2.82c1.6,0.65,2.71-0.8,3.79,0.17
	C21.72,76.66,14.31,73.54,15.97,70.5 M21.12,72.66c-3.88,2.71-1.85-4.37-2.06-4.63c0.9-0.64,2.76,0.2,3.5,0.93
	C20.7,69.73,19.17,70.69,21.12,72.66 M18.44,67.61c-1.92-1.12,5.57-2.24,6.7,1.54C23.22,68.71,20.62,65.82,18.44,67.61 M7.31,64.83
	c1.03-4.53,10.64-4.07,8.97,1.34c-1.1,0.47-2.53-4.72-6.04-3.03c-5.38,2.58,2.48,5.88,4.39,6.43C12.04,71.05,6.48,68.46,7.31,64.83
	 M1.85,72.04c0.24-2.37,2.54-3.84,4.22-5.15C6.87,68.08,2.32,72.51,1.85,72.04 M2.88,73.79c-0.1-0.15,4.31-5.36,4.53-5.88
	c2.35,2.52,4.57,3.24,7.93,2.16c-0.65,1.61-3.23,0.01-3.6,1.24c0.92,0.47,1.88,0.57,2.89,0.31c0.1,0.13,0.13,0.27,0.1,0.42
	c-0.53,0.11-1.89,0.03-1.65,0.83c1.06,0.59,1.54-0.53,2.47,0.62c0.41-0.29-1.08,0.57-0.82,0.83c5.25-0.96,5.45,2.34,5.67,6.59
	c0.72-1.52-0.78-5.23,1.75-5.26c-0.98,2.03-0.55,5.62,0.41,7.01c0.06-3.13-1.58-9.23,3.09-8.96c0.04,3.19-0.5,6.25-0.19,9.64
	c0.48,5.2-0.48,2.25-1.97,1.8c-0.09,1.12,0.47,3.1-0.93,3.71c0.69-1.53,0.55-2.49-0.42-2.88c-1.13,1.54,0.03,4.84,0.62,6.38
	c-0.72-0.66-1.38-1.38-1.96-2.16c-1.54,1.94-5.23,0.47-6.9,3.51c-2.14-3.22-2.45-5.1-2.38-8.94C11.62,79.24,5.53,77.68,2.88,73.79
	 M30.29,89.04c0.14-0.45,0.27-0.89,0.41-1.34c4.59,1.4-0.66,8.159-4.22,7.42C28.05,94.06,33.24,91.33,30.29,89.04 M24.31,96.15
	c0.75-0.84,1.54-0.95,2.37-0.311C24.79,98.63,24,98.73,24.31,96.15 M26.48,93.27c-0.73,0.98-4.69,4.05-5.76,1.96
	C21.99,93.42,25.08,91.82,26.48,93.27C25.46,94.64,26.48,93.27,26.48,93.27z M8.76,96.25c-1.85,1.54-3.37-1.79-3.92-3.2
	c1.43-1.27,4.61,1.9,5.04-1.54c0.83,0.32,1.14,0.9,0.93,1.75C8.64,93.4,7.92,94.15,8.76,96.25 M5.87,86.67
	c1.07-1.5,3.9,4.01,1.96,5.46C6.44,91.56,5.28,88.1,5.87,86.67 M9.69,89.87c2.09-0.21,3.45,1.69,3.4,3.6
	C11.88,93.39,10.17,91.32,9.69,89.87 M9.58,89.15c-0.6-0.74-0.56-1.11,0.1-1.13C10.34,88.69,10.31,89.06,9.58,89.15 M9.89,94.92
	c0.84-0.5,7.13-0.57,6.59,1.24C14.38,96.77,11.5,96.15,9.89,94.92C10.13,94.78,9.89,94.92,9.89,94.92z M19.37,96.359
	c0.69,0.311,1.37,0.621,2.06,0.931c-3.24,5.81-4.62-3.02-4.74-3.3c1.01-0.63,2.16-0.7,3.29-0.62
	C20.41,94.41,19.13,94.82,19.37,96.359 M15.97,93.99c-0.41-0.07-0.83-0.14-1.24-0.21c0.94-2.5,5.36-2.13,7.22-1.24
	C20.54,93.02,16.71,92.07,15.97,93.99 M14.22,97.59c4.66,1.24,4.86,0.41,9.17-1.029C24.15,97.189,15.89,104,14.22,97.59L14.22,97.59
	z M24.62,91.41c-0.38,0.17-0.75,0.34-1.13,0.51c-1.06-2.16,0.43-4.24,2.27-5.05C25.92,88.79,23.81,89.51,24.62,91.41 M4.74,88.63
	c-5.14,1.3-3.34-6.99,0-8.45c3.71-0.1,8.87,6.82,4.22,7.22c-0.17-0.42-1.1-10.7-5.38-4.84C1.98,84.77,3.18,87.24,4.74,88.63
	C2.44,89.21,4.74,88.63,4.74,88.63z M4.53,86.98c-6.26-7.07,8.15-2.73,3.92-0.93C7.37,84.03,4.51,84.74,4.53,86.98 M7.62,98.83
	c-4.14-0.28-6.22-6.21-2.58-8.24c0.86,2.34-2.12,2.6,0.68,5.57c2.1,2.23,2.71-0.03,4.88,0.609C9.98,97.98,8.98,98.67,7.62,98.83
	 M33.07,83.58c3.2,1.23,5.38,6.93,2.64,9.33c-4.06,3.57-9.71,4.72-9.59,10.91c0.05,2.93,1.7,11.89-1.38,13.65
	c-3.2,1.829-8.3,1.859-11.85,1.469c-5.81-0.649-2.83-13.489-2.27-18.08c0.97-7.859,3,0.141,7.4,0.051c4.15-0.09,8.94-3.61,12.16-5.9
	c-0.43,0.74,4.75-2.62,5.46-4.23c-0.28-0.28-3.36,2.28-3.71,2.57c0.64-1.39,2.36-2.33,2.57-3.81c-0.52-0.33-1.01-0.08-1.45,0.73
	c0.52-0.61,1.31-2.33,1.96-2.98c-0.85,0.14-1.61,0.48-2.27,1.03c-0.24-0.14-0.38-0.35-0.41-0.62c0.61-0.18,1.05-0.52,1.34-1.03
	C30.76,85.42,29.27,88.04,33.07,83.58 M31.32,83.27c-0.42,0.1-0.76,0.31-1.03,0.62c-1.32-2.48-3.57-2.26-3.7-4.32
	C29.15,79.48,31.4,80.33,31.32,83.27 M26.89,82.45c0.68-0.31,1-1.86,2.37,0.1C28.48,82.21,27.69,82.17,26.89,82.45 M28.95,88.84
	c-2.59,1.73-2.05-4.2-1.34-5.26c0.28,0,0.55,0,0.83,0C29.23,85.27,29.4,87.02,28.95,88.84 M27.1,90.59
	c0.87,0.19,2.71-0.89,3.09-0.73c0.21,1.29-0.92,3.22-2.16,3.6c-0.07-2.94-4.24-1.81-2.15-4.33C26.29,89.62,26.69,90.11,27.1,90.59
	 M21.64,70.91c0.95-0.74,7.28-0.65,6.69,1.34C26.97,72.9,22.31,72.65,21.64,70.91 M35.75,75.65c-1.54,2.14-9.17,1.34-9.17-1.85
	c3.96-0.21-0.49,0.77,3.14,1.4c2.08,0.36,3.99-0.73,6.03-0.78C35.75,74.83,35.75,75.24,35.75,75.65 M33.59,73.07
	c-0.96-0.64,5.06-1.41,6.39-0.52C38.48,73.49,35.18,74,33.59,73.07 M39.56,75.34c-1.4-2.8,2.42-0.37,3.81-0.51
	c2.36-0.24,2.94-1.32,5.15-1.45C49.06,76.23,40.95,75.8,39.56,75.34 M45.64,72.04c-0.75-1.28,5.49-1.41,6.69-1.35
	C53.07,72.56,46.44,72.23,45.64,72.04 M51.72,73.69c0.37,0.63,6.82-2.29,8.45-2.68C62.47,73.75,53.02,74.1,51.72,73.69
	 M32.86,110.061c0.76-1,0.9-1.83,1.55-0.73C33.89,109.58,33.38,109.82,32.86,110.061 M34.72,111.92c0.74-1.27,0.56-1.67,1.34-0.73
	C35.61,111.439,35.17,111.68,34.72,111.92 M37.81,114.08c0.07-0.45,0.14-0.891,0.21-1.34C39.03,113.16,38.59,113.3,37.81,114.08
	 M65.94,98.109c0.12,0.681-0.19,1.201-0.93,1.551c-0.24-0.78-0.65-1.15-1.23-1.131c-0.31,1.41,1.62,4.311-0.82,4.841
	c-0.04-0.47-0.01-4.71-0.31-4.841c-1.57,2.24,0.39,5.531-1.65,6.91c-0.7-0.969-0.21-2.58-0.82-3.609c-1.19,0.5-0.98,4.54-2.06,5.77
	c0.38-0.92,0.25-1.539-0.41-1.859c-0.93,1.6-0.22,3.16-2.47,3.71c0.66-0.86,0.66-1.44,0-1.75c-1.68,1.31-2.37,2.899-4.68,2.399
	c-7.9-1.72,0.39,0.26-2.84,1.41c-1.9,1.34-6.46,2.41-8.28,1c-3.22-2.5,3.05-3,4.58-4.199c-2.09-1.48-5.47,2.42-7.83,1.24
	c-0.02-1.461,5.98-2.83,7.42-2.781c-0.14-0.819-16.12,3.07-5.05-0.5c3.69-1.949,7.84-0.6,10.98-4.029c1.36-1.48,3.7-4.41,3.03-6.68
	C50.95,93,49.88,92.23,51.44,89.48c-0.24,0.22-1.43,1.4-1.88,1.55c-0.02-0.88,1.82-5.14,1.13-5.66c-0.61,1.02-1.74,2.5-3.09,3.19
	c-0.42-2.31,3.4-5.12-0.21-4.43c2.37-3.98,4.49-7.59,9.06-9.27c1.19,5.8,5.6,7.42,6.49,12.57C65.25,92.04,62.92,93.61,65.94,98.109
	 M66.04,117.79c-0.48,0.271-0.38-2.11,1.34-1.75C68.01,116.75,67.56,117.33,66.04,117.79 M70.27,119.13
	c-1.15,0.8-0.37-1.729-0.31-1.95C71.641,117.93,71.54,117.71,70.27,119.13 M94.99,98.42c-0.67,0.29-0.29-0.57-1.03-0.42
	c-0.25,2.04,0.13,8.54-1.96,2.27c-1.74,2.351,1.98,5.311,0.1,6.91c-0.119,0.36-1.979-2.789-2.26-2.89
	c-0.699,2.16,2.35,5.819-1.34,6.39c-0.109-1.459-0.16-4.92-1.34-5.869c-1.061,1.77,1.91,7.479-1.131,8.039
	c0.201,1.141-0.75-4.449-0.719-3.3c-0.511,1.05,0.08,4.29-0.83,4.841c0.369-1.461,0.06-2.25-0.931-2.361
	c-0.86,6.631-4.14,2.841-8.28,5.461c-1.819,1.15-3.22-0.94-5-1.03c-1.06-2.229,2.57-1.72,3.4-3.09c-2.16-1.979-5.58,4.34-7,1.13
	c-0.96-2.721,0.96-5.99,5.561-4.84c4.93,1.27,8.24-3.71,8.24-8.35c0-6.741-5.541-5.391-8.341-9.69c-0.04,0.69-0.59,3.64-1.45,4.01
	c-0.22-1.55-0.459-3.1-0.72-4.64c-0.88-0.35-2.05,2.67-2.26,2.78c-1.39-3.9-4.84-6.91-3.92-11.44c0.68-3.37,3.88-5.27,4.12-8.86
	c-1.25-0.27-4.33,7.97-5.67,8.55c-1.7-1.43-3.72-2.75-4.36-5.04c-1.32-4.69,4.41-1.91,3.23-6.19c1.24-0.18,12.88,5.09,11.33-2.78
	c1.75-0.37,2.381,2.31,5.471,0.979c1.33-0.59,2.55-1.34,3.67-2.27c1.859-1.56-0.43-2.16,0.859-3.44c2.23,3.03,7.631,0.01,9.07-2.37
	c4.79,3.59,2.52,8.38,3.4,13.09c0.35,1.89,2.24,2.87,2.68,4.74c0.65,2.8-0.13,5.71,0.311,8.55c-1.781-0.17-2.391-1.64-2.17-3.5
	c-1.201,0.42-0.441,2.77-0.41,3.61c-1.98-0.83-0.57-5.26-0.721-6.8c-0.76-0.33-1.109,6.13-1.77,7.23
	C88.939,94.29,96.54,93.52,94.99,98.42 M62.44,9.5c-1.99,1.7,7.21-5.06,5.87-1.95c-0.26,0.39-2.66,0.84-2.16,1.54
	c2.94,0.7,5.43-3.19,1.85-3.71C62.57,5.89,66.06,7.31,62.44,9.5 M52.24,7.96c-0.61-2.03-5.54,1.03-6.07,1.44
	C46.94,9.2,51.94,8.49,52.24,7.96 M51.41,10.02C41.39,11.29,50.47,15.31,51.41,10.02 M47.7,12.18c-1.25-0.71,1.04-1.41,1.34-0.72
	C48.59,11.7,48.15,11.94,47.7,12.18 M70.891,10.84C70.43,12.32,70.84,10.76,70.891,10.84 M72.12,13.42
	c0.649-0.66,0.36-1.79-0.41-2.06C71.23,12.77,71.359,13.46,72.12,13.42C72.189,13.35,72.12,13.42,72.12,13.42z M69.55,12.59
	c0.11-0.52,0.6-0.77,0.82-1.03c-1.59-0.01-2.75,0.36-4.43,0.31C66.02,13.35,68.85,12.71,69.55,12.59 M19.68,15.07
	c0.07-1.06,0.14-2.13,0.21-3.19C18.63,12.9,19.67,14.89,19.68,15.07C19.92,14.07,19.68,15.07,19.68,15.07z M71.09,13.73
	c0.061-0.35,0.59-0.93,0-1.44C71.09,12.77,71.09,13.25,71.09,13.73L71.09,13.73z M18.34,21.15c0-1.28,0.72-5.82-0.41-6.39
	C17.9,16.79,17.81,19.58,18.34,21.15L18.34,21.15z M71.5,15.27C72.09,14.35,71.66,14.61,71.5,15.27 M70.58,15.17
	c-0.58,0.24-0.82,0.61-0.72,1.13C70.44,16.12,70.68,15.74,70.58,15.17 M71.5,17.33c-1.28-0.64-9.07,4.28-10.3,5.46
	c-0.02,0.16,0.05,0.3,0.21,0.41C63.29,22.96,71.221,19.05,71.5,17.33 M19.47,18.16c-0.07,1.39-0.17,2.27,0.21,3.61
	C20.16,21.12,21.13,16.66,19.47,18.16 M73.87,18.98c0.601-1.36-1.95-1.58-1.95,0.05C71.92,20.28,73.45,19.72,73.87,18.98
	 M73.25,18.98C72.25,18.35,72.85,18.73,73.25,18.98L73.25,18.98z M58.42,21.15c0.9-0.43,0.97-0.8,0.2-1.13
	C58.14,20.39,57.68,20.88,58.42,21.15 M69.13,20.22C65.93,24.45,72.7,20.67,69.13,20.22 M69.65,21.15
	C69.44,21.88,68.98,21.62,69.65,21.15C69.62,21.25,69.65,21.15,69.65,21.15z M71.09,22.9c0.98,0.98,2.5-0.63,2.68-1.75
	C72.63,21.01,71.221,21.58,71.09,22.9 M64.19,23.52C65.87,28.53,66.31,17.58,64.19,23.52 M65.63,23C66.2,24.88,63.88,22.48,65.63,23
	 M60.89,24.34c-1.25,0.48-1.63,1.2-1.13,2.16C61.67,27.48,62.95,24.6,60.89,24.34 M60.99,25.89C60.58,24.98,61.39,25.39,60.99,25.89
	 M6.49,25.58c-0.29,1.02,0.83,1.68,1.75,1.95C8.73,26.68,8.14,26.03,6.49,25.58 M8.34,25.68c-0.6,1.41,5.69,5.23,6.8,5.77
	C14.33,29.26,10.3,26.77,8.34,25.68 M54.92,27.53C57.42,30.62,57.68,23.76,54.92,27.53 M56.25,27.23
	C56.76,27.95,55.28,28.24,56.25,27.23 M82.63,28.15c-0.399-0.57-0.8-1.19-1.34-0.41C81.17,27.6,83.1,30.02,82.63,28.15 M50.8,28.67
	C53.32,32.44,52.86,25.44,50.8,28.67 M52.24,28.87C51.25,30.27,51.61,27.77,52.24,28.87 M8.96,27.95c-0.13,1.04,2.58,2.89,3.3,2.58
	C11.44,29.32,10.34,28.46,8.96,27.95 M84.79,28.36c-0.8-1.22-1.64,1.68-0.3,1.75C84.88,29.58,84.98,29,84.79,28.36 M86.13,30.73
	c0.271-0.72,0.54-1.06-0.31-1.23C85.1,30.74,85.95,30.15,86.13,30.73C86.23,30.46,86.13,30.73,86.13,30.73z M12.36,30.83
	c-0.52,0.92,0.23,1.44,2.27,1.55C14.19,31.69,13.25,30.94,12.36,30.83 M28.54,33.1c-0.75-0.94-3.59,2.42-4.01,2.88
	C25.73,36.19,27.66,33.85,28.54,33.1 M79.54,36.7c-0.83,0.58-1.011-2.5-1.44-2.99c-2.26,1.53,0.94,4.69,2.271,5.16
	c-0.011-0.65-0.12-3.08,0.72-3.5c0.16,0.95,2.11,6.23,3.82,4.53c-0.33-1.31-0.86-3.05-1.54-3.81c0,0.62,0,1.23,0,1.85
	c-0.7-0.95-1.3-3.14-1.649-4.64C80.18,32.83,79.46,33.97,79.54,36.7 M26.58,36.09c-0.68,0.53-4.05,2.49-3.6,3.4
	C23.45,39.15,27.82,36.91,26.58,36.09 M23.59,37.12c0.89-0.88-2.58,1.01-2.16,1.97C22.39,38.7,23.11,38.04,23.59,37.12 M57.39,38.76
	c-0.41,0.24-1.68,0.22-2.16,1.55C56.23,40.73,57.71,39.94,57.39,38.76 M22.15,46.08c-0.02-0.93,0.41-4.08-0.51-4.54
	C20.74,42.44,21.85,45.62,22.15,46.08C22.12,44.64,22.15,46.08,22.15,46.08z M81.29,42.78c-0.021-0.81-0.36-1.12-1.03-0.93
	c-0.779,1.55,0.9,3.07,1.961,3.81C82.4,44.87,82.71,41.57,81.29,42.78 M20.19,52.78c0.34-1.28,1.32-7.2-0.21-8.86
	C19.13,45.15,19.23,51.82,20.19,52.78 M85,46.8c-0.66-2.53-2.3,1.89-0.1,3.3c1-0.78,1.649-2.92,1.129-4.02
	C85.689,46.32,85.34,46.56,85,46.8 M12.36,48.66c0.76,0.49,1.07,0.42,0.93-0.21c-0.8-0.36-4.46-2.54-5.15-1.85
	C9.01,47.7,10.77,48.8,12.36,48.66 M91.9,46.9C91.68,47.21,91.471,47.52,91.9,46.9L91.9,46.9z M82.529,47.32
	c-0.549-0.35-0.829,0.06-0.829,1.24c-0.38-0.51-0.8-0.99-1.24-1.44c-0.94,1.2-0.63,2.47,0.931,3.81
	C82.84,50.75,83.391,48.43,82.529,47.32 M22.25,52.16c-0.03-1.61-0.07-3.23-0.1-4.84C21.59,48.4,21.57,51.02,22.25,52.16
	C22.22,50.55,22.25,52.16,22.25,52.16z M9.38,48.76c-1.69,0.729,3.15,1.54,2.98,1.54C12.68,49.23,9.93,48.79,9.38,48.76
	 M14.94,51.03c1.15-0.86-3.24-0.89-1.96-0.92C13.19,51.09,13.84,51.4,14.94,51.03 M86.029,53.4C88.75,52.95,84.09,48.37,86.029,53.4
	 M82.939,51.33c-0.439,0.83,0.131,1.77,0.61,2.37C86.46,51.97,84.141,51.49,82.939,51.33 M22.15,53.29
	c-0.54,1.22-0.69,7.32,0.93,7.63C23.29,59.74,23.33,53.63,22.15,53.29 M20.09,53.91c-0.29,1.56-0.96,9.46,0.82,9.78
	C21.13,62.02,21.78,54.76,20.09,53.91 M55.53,59.58c0.77,0.76,2.22-1.52,1.03-2.37C56.22,58,55.87,58.79,55.53,59.58 M24.01,63.49
	c0.67-0.8,0.91-1.729,0.72-2.78C23.77,61.35,22.44,62.97,24.01,63.49 M27.82,66.58c0.34-0.31-2.17-0.32-1.55,1.75
	C26.98,67.92,27.5,67.34,27.82,66.58 M11.85,81.63c0.52,0.9,0.32,4.26,1.34,4.64c1.45-4.76-3.7-10.86-8.24-11.96
	C4.7,75.82,10.96,80.08,11.85,81.63 M13.91,81.52c1.31-2-5.6-6.94-7.21-7.21C6.85,73.96,13.26,80.98,13.91,81.52 M0,74.62
	C0.53,74.85,0.18,74.2,0,74.62 M13.81,79.56c-0.2-1.63-1.65-4.1-3.72-4.74C10.86,76.62,12.52,78.13,13.81,79.56 M23.7,81.63
	c0.06-0.93,1.02-5.88-0.1-6.08C22.97,77.49,23.12,80.15,23.7,81.63C23.84,79.64,23.7,81.63,23.7,81.63z M69.44,79.36
	c-0.41-0.41-1.72,3.04-2.78,3.61c0.01-0.1,0.91-2.89-0.1-3.19c-1.27,1.41-1.12,3.96-0.93,5.67C67.81,86.25,69.48,80.63,69.44,79.36
	 M20.61,89.46c0.4-0.92,1.22-6.51-0.2-7.22C20.1,83.42,19.72,88.57,20.61,89.46 M23.8,84.72c0.02-0.18,1.12-1.82,0-2.38
	C23.8,83.14,23.8,83.93,23.8,84.72L23.8,84.72z M70.27,82.86c-2.04,2.89-0.31,2.1-1.64,0.52c-0.32,0.58-1.33,4.6-0.51,4.94
	C69.05,87.44,71.65,83.93,70.27,82.86 M23.08,83.17c-0.1,0.38-0.79,1.05-0.52,2.06C23.51,85.37,23.69,84.68,23.08,83.17
	 M52.34,84.41c-0.01,0-0.67-0.91-1.34,0.62C51.67,85.36,52.12,85.16,52.34,84.41 M51.52,89.15c0.68-0.55,2.12-1.26,2.57-2.79
	C52.64,86.6,51.7,87.62,51.52,89.15 M72.529,86.36c-0.819,0.13-3.799,3.02-1.639,3.92C72.311,89.94,72.67,87.46,72.529,86.36
	L72.529,86.36z M73.561,88.84c-0.551,1.45-0.34,2.45,0.619,2.99C75.76,90.7,74.609,89.71,73.561,88.84 M76.859,91.1
	c0.031,0.93,0.25,1.7,1.031,1.96C77.91,92.77,78.29,89.69,76.859,91.1 M27.2,98.109c1.35-0.049,1.97-0.529,1.85-1.439
	C28.24,96.27,27.36,97.32,27.2,98.109 M12.16,98.01c-1.32,0.78-1.18,4.02-0.73,5.36C11.7,102.689,13.73,98.471,12.16,98.01
	 M22.46,101.2c-0.41,0.89-1.5,5.39-1.02,6.18c0.4-0.569,0.22-1.649,1.23-1.96c0.65-4.46,2.85-3.561,3.81-7.109
	C25.57,99.189,23.85,100.63,22.46,101.2 M23.9,104.29c-1.02,1.021-2.36,6.271-2.48,7.729c1.84,1.181,2.97,1.9,1.96,4.541
	c1.97-0.721,1.11-5.82,0.93-7.521c-0.58,0.88-1.06,1.8-1.44,2.78c-0.31-0.09,1.71-8.4,2.36-10.09
	C24.35,102.35,23.91,103.2,23.9,104.29 M19.58,101.92c-0.35,0.939-0.25,2.9,0.31,3.71C20.84,104.68,21.18,102.25,19.58,101.92
	 M10.92,106.76c-0.22,0.211,2.63-1.289,0.51-2.25C10.94,105.189,10.77,105.939,10.92,106.76 M11.33,110.779c0-0.719,0-1.449,0-2.17
	C9.85,109.59,11.2,110.08,11.33,110.779L11.33,110.779z M19.78,111.92c1.05-0.93-0.26-2.87-0.82-3.199
	C18.91,109.49,18.99,111.7,19.78,111.92 M13.08,112.641c0.13-0.75-0.05-1.4-0.52-1.961C12.43,111.82,11.82,112.93,13.08,112.641
	 M71.09,110.891c-1.16,0.539-3.02,1.389-3.81,2.06c0.3,0.3,6.05-1.08,6.18-1.33C72.721,111.26,71.93,111.01,71.09,110.891
	 M75.01,112.12c-0.699,0.149-1.01,0.5-0.93,1.03c0.641,0.129,1.71,0.17,2.37,0.1C74.76,110.57,76.23,112.939,75.01,112.12
	C74.7,112.359,75.01,112.12,75.01,112.12z M10.92,112.641c-0.74,1.35-0.64,2.069,0.31,2.159
	C11.62,113.99,11.52,113.27,10.92,112.641 M20.4,113.359c-0.72-0.09-1.19,1.49-1.24,2.48C20.55,116.54,20.24,114.08,20.4,113.359
	C20.16,113.33,20.4,113.359,20.4,113.359z M81.29,114.49C81.779,114.27,81.41,114.29,81.29,114.49 M12.57,117.17
	c1.31,0.25,0.98-1.72,0.2-1.85C12.7,115.939,12.64,116.561,12.57,117.17 M21.43,115.63c-0.1,0.479-0.21,0.96-0.31,1.44
	c0.25,0.16,0.53,0.189,0.83,0.1C22.28,116.32,22.1,115.8,21.43,115.63"/>
<path fill="#FEF9D6" d="M24.16,131.54c0.54,0,1.07-0.011,1.61-0.021c0.54-0.02,1.07-0.02,1.59-0.02c0.64,0,1.25,0.05,1.83,0.15
	c0.58,0.1,1.08,0.27,1.52,0.51c0.44,0.25,0.79,0.58,1.04,1s0.38,0.96,0.38,1.609c0,0.971-0.29,1.791-0.87,2.461
	c-0.58,0.67-1.37,1.08-2.37,1.229c0.58,0.03,1.14,0.12,1.67,0.261c0.53,0.139,1,0.359,1.4,0.649s0.72,0.68,0.96,1.149
	c0.24,0.48,0.36,1.061,0.36,1.75c0,0.61-0.1,1.19-0.3,1.721c-0.2,0.539-0.52,1-0.95,1.4c-0.43,0.399-0.99,0.709-1.67,0.939
	c-0.68,0.23-1.5,0.35-2.45,0.35h-1.5c-0.58,0-1.17,0-1.75,0.01s-1.13,0.021-1.65,0.021c-0.52,0.011-0.92,0.021-1.2,0.03
	c0-0.43,0.04-0.75,0.11-0.961c0.3-0.01,0.55-0.059,0.75-0.119c0.2-0.07,0.36-0.18,0.48-0.35c0.12-0.16,0.21-0.381,0.26-0.66
	c0.05-0.28,0.08-0.631,0.08-1.061v-9.21c0-0.75-0.11-1.25-0.33-1.51c-0.22-0.261-0.62-0.41-1.22-0.44
	c-0.04-0.119-0.08-0.27-0.09-0.439c-0.02-0.17-0.02-0.35-0.02-0.53c0.3,0.03,0.66,0.05,1.09,0.06
	C23.35,131.529,23.76,131.54,24.16,131.54z M25.93,132.48c-0.11,0.01-0.22,0.039-0.34,0.069v5.71h0.69c0.72,0,1.31-0.08,1.77-0.24
	s0.83-0.369,1.1-0.64s0.45-0.569,0.55-0.909c0.1-0.341,0.15-0.681,0.15-1.041c0-0.58-0.11-1.07-0.31-1.459
	c-0.21-0.391-0.48-0.701-0.81-0.931s-0.69-0.39-1.08-0.479s-0.77-0.131-1.14-0.131C26.31,132.43,26.11,132.45,25.93,132.48z
	 M25.6,139.26v4.32c0,0.46,0.03,0.83,0.09,1.109c0.06,0.281,0.17,0.49,0.32,0.641c0.16,0.15,0.37,0.25,0.64,0.3s0.61,0.08,1.03,0.08
	c1.1,0,1.92-0.28,2.43-0.83c0.52-0.55,0.77-1.319,0.77-2.31c0-0.69-0.15-1.25-0.44-1.68c-0.29-0.431-0.67-0.771-1.13-1.021
	s-0.97-0.41-1.53-0.49c-0.56-0.08-1.12-0.12-1.67-0.12H25.6z"/>
<path fill="#FEF9D6" d="M45.58,131.471c0.01,0.25,0.04,0.529,0.08,0.84c0.04,0.31,0.07,0.619,0.11,0.939s0.08,0.63,0.12,0.939
	c0.04,0.311,0.1,0.58,0.16,0.82c-0.12,0.1-0.27,0.18-0.44,0.211c-0.17,0.039-0.36,0.049-0.57,0.049c-0.03-0.34-0.1-0.689-0.21-1.029
	s-0.31-0.65-0.58-0.92c-0.28-0.27-0.65-0.48-1.11-0.65c-0.46-0.16-1.05-0.25-1.77-0.25h-1.61v6.141h0.94
	c0.46,0,0.85-0.031,1.17-0.08c0.31-0.051,0.57-0.15,0.76-0.28s0.34-0.32,0.43-0.56c0.09-0.24,0.13-0.541,0.13-0.9
	c0.19-0.061,0.37-0.1,0.53-0.12c0.16-0.021,0.34-0.03,0.55-0.03c-0.03,0.391-0.04,0.801-0.04,1.23v2.51c0,0.48,0.01,0.91,0.04,1.3
	c-0.21,0-0.39-0.01-0.55-0.021c-0.16-0.01-0.32-0.039-0.48-0.09c-0.03-0.39-0.09-0.709-0.19-0.959c-0.1-0.25-0.24-0.461-0.44-0.621
	c-0.19-0.16-0.44-0.26-0.75-0.319s-0.69-0.091-1.15-0.091h-0.94v4.051c0,0.42,0.03,0.76,0.08,1.029c0.05,0.271,0.15,0.48,0.3,0.641
	s0.35,0.26,0.62,0.32c0.26,0.06,0.6,0.09,1.02,0.09h0.13c0.69,0,1.25-0.061,1.68-0.18c0.43-0.121,0.79-0.301,1.06-0.541
	c0.28-0.239,0.5-0.529,0.67-0.889c0.17-0.351,0.34-0.761,0.5-1.221c0.22,0.08,0.41,0.15,0.56,0.221c0.15,0.069,0.29,0.18,0.43,0.309
	c-0.16,0.521-0.3,1.08-0.41,1.67c-0.11,0.591-0.2,1.15-0.28,1.671c-0.22,0-0.5,0-0.82-0.011c-0.32-0.01-0.68-0.01-1.06-0.02
	c-0.39-0.01-0.79-0.01-1.21-0.01h-2.71c-0.55,0-1.1,0-1.65,0.01c-0.54,0.01-1.06,0.02-1.55,0.02c-0.49,0.011-0.87,0.021-1.15,0.031
	c0-0.431,0.04-0.75,0.11-0.961c0.3-0.01,0.55-0.06,0.75-0.119c0.2-0.07,0.36-0.181,0.48-0.351c0.12-0.16,0.21-0.38,0.26-0.66
	c0.05-0.28,0.08-0.63,0.08-1.06v-9.211c0-0.75-0.11-1.25-0.33-1.51c-0.22-0.26-0.62-0.41-1.22-0.439
	c-0.04-0.12-0.08-0.27-0.09-0.439C36,131.8,36,131.62,36,131.439c0.22,0.021,0.51,0.031,0.85,0.031c0.34,0.01,0.7,0.02,1.06,0.02
	c0.37,0.01,0.71,0.01,1.04,0.01h0.81c1.54,0,2.8-0.01,3.79-0.02C44.53,131.5,45.2,131.48,45.58,131.471z"/>
<path fill="#FEF9D6" d="M54.92,131.49c0.25-0.061,0.54-0.09,0.87-0.09l5.33,12.229c0.18,0.42,0.34,0.761,0.48,1.03
	c0.14,0.27,0.28,0.48,0.4,0.64c0.13,0.16,0.25,0.271,0.38,0.341c0.13,0.069,0.28,0.119,0.46,0.149c0.06,0.19,0.1,0.36,0.11,0.489
	c0.01,0.131,0.02,0.291,0.02,0.471c-0.12,0-0.28,0-0.49-0.01s-0.44-0.02-0.69-0.03l-0.74-0.021h-0.63c-0.18,0-0.39,0-0.64,0.011
	c-0.25,0.01-0.49,0.021-0.73,0.021c-0.24,0.01-0.47,0.02-0.68,0.02c-0.22,0.01-0.38,0.01-0.48,0.01c0-0.18,0.01-0.35,0.02-0.51
	c0.01-0.16,0.06-0.311,0.13-0.45c0.31-0.03,0.56-0.069,0.73-0.13s0.29-0.15,0.35-0.28s0.07-0.3,0.02-0.5
	c-0.04-0.21-0.14-0.479-0.29-0.83l-0.99-2.29c-0.97,0-1.99,0.01-3.07,0.02c-1.03,0.011-1.99,0.041-2.87,0.07l-0.58,1.541
	c-0.34,0.879-0.45,1.489-0.31,1.83c0.13,0.34,0.51,0.529,1.12,0.569c0.1,0.25,0.16,0.58,0.16,0.96c-0.25-0.029-0.58-0.05-0.97-0.061
	c-0.39-0.01-0.78-0.01-1.15-0.01s-0.73,0.01-1.05,0.021c-0.33,0.01-0.6,0.03-0.81,0.04c0-0.15,0.01-0.311,0.03-0.48
	s0.06-0.32,0.12-0.459c0.19-0.041,0.37-0.111,0.51-0.201c0.15-0.09,0.29-0.229,0.43-0.399c0.14-0.171,0.27-0.41,0.39-0.7
	c0.13-0.29,0.28-0.66,0.46-1.109L54.92,131.49z M52.37,140.74h5.08l-1.7-3.99c-0.1-0.221-0.2-0.43-0.28-0.63
	c-0.08-0.19-0.16-0.39-0.25-0.591c-0.08-0.199-0.17-0.409-0.26-0.619c-0.06-0.18-0.13-0.37-0.23-0.58
	c-0.15,0.49-0.29,0.92-0.42,1.279c-0.13,0.391-0.27,0.761-0.4,1.121L52.37,140.74z"/>
<path fill="#FEF9D6" d="M67.51,131.54c0.63,0,1.25-0.011,1.87-0.021c0.62-0.02,1.24-0.02,1.87-0.02c0.85,0,1.58,0.1,2.189,0.29
	c0.61,0.2,1.121,0.46,1.511,0.8c0.399,0.34,0.69,0.73,0.88,1.189c0.189,0.461,0.29,0.951,0.29,1.49c0,1.051-0.36,1.93-1.08,2.641
	c-0.66,0.66-1.55,1.13-2.67,1.43c0.19,0.18,0.37,0.359,0.54,0.54c0.21,0.229,0.41,0.47,0.6,0.75c0.19,0.28,0.4,0.591,0.61,0.95
	s0.45,0.8,0.739,1.32c0.521,0.939,1.041,1.649,1.551,2.129c0.51,0.48,1.13,0.73,1.88,0.761c0,0.181,0,0.34-0.011,0.489
	c-0.01,0.15-0.029,0.311-0.079,0.471c-0.57,0-1.16,0.01-1.771,0.02c-0.609,0.01-1.189,0.051-1.75,0.11
	c-0.24-0.37-0.529-0.87-0.869-1.479c-0.34-0.61-0.69-1.28-1.051-1.99c-0.34-0.689-0.76-1.36-1.25-2.02
	c-0.39-0.541-0.82-1.051-1.3-1.541c-0.61,0.03-1.16,0.03-1.64,0v3.99c0,0.75,0.1,1.25,0.31,1.51s0.6,0.41,1.17,0.44
	c0.04,0.13,0.07,0.29,0.09,0.46c0.01,0.17,0.02,0.34,0.02,0.5c-0.48-0.029-0.97-0.05-1.48-0.061c-0.51-0.01-0.9-0.01-1.19-0.01
	h-0.65c-0.24,0-0.48,0-0.73,0.01c-0.25,0.011-0.49,0.021-0.72,0.021c-0.23,0.011-0.43,0.021-0.59,0.03c0-0.16,0.01-0.33,0.02-0.49
	c0.02-0.16,0.04-0.32,0.09-0.471c0.6-0.029,1-0.18,1.22-0.439c0.22-0.26,0.32-0.77,0.32-1.51v-9.45c0-0.75-0.11-1.26-0.32-1.54
	c-0.22-0.279-0.62-0.41-1.22-0.41c-0.05-0.15-0.08-0.3-0.09-0.449c-0.01-0.15-0.02-0.311-0.02-0.49c0.22,0.02,0.6,0.029,1.12,0.029
	C66.46,131.529,66.99,131.54,67.51,131.54z M69.32,132.34c-0.24,0.03-0.49,0.07-0.74,0.131v6.27c0.15,0.029,0.29,0.039,0.43,0.039
	c0.18,0.021,0.37,0.021,0.56,0.021c0.61,0,1.18-0.06,1.709-0.19c0.531-0.129,0.99-0.33,1.391-0.609s0.71-0.62,0.93-1.04
	c0.221-0.42,0.34-0.92,0.34-1.5c0-0.94-0.279-1.71-0.84-2.3c-0.56-0.59-1.51-0.891-2.859-0.891
	C69.9,132.3,69.59,132.311,69.32,132.34z"/>
<path fill="#FEF9D6" d="M7.43,162.6c0.34,0,0.68,0,1.02-0.01c0.34-0.01,0.68-0.01,1.02-0.01c0.46,0,0.86,0.05,1.2,0.16
	c0.33,0.109,0.61,0.25,0.82,0.43c0.22,0.18,0.38,0.4,0.48,0.65c0.11,0.25,0.16,0.52,0.16,0.81c0,0.57-0.19,1.05-0.59,1.44
	c-0.36,0.359-0.84,0.619-1.45,0.779c0.11,0.101,0.2,0.2,0.29,0.291c0.11,0.119,0.22,0.26,0.33,0.409c0.11,0.15,0.22,0.32,0.33,0.521
	c0.11,0.199,0.25,0.439,0.4,0.72c0.29,0.51,0.57,0.899,0.84,1.16c0.28,0.26,0.62,0.399,1.03,0.42c0,0.101,0,0.19-0.01,0.271
	c0,0.08-0.02,0.17-0.04,0.26c-0.31,0-0.63,0-0.97,0.01c-0.33,0.01-0.65,0.029-0.95,0.061c-0.13-0.201-0.29-0.471-0.48-0.811
	c-0.19-0.33-0.38-0.7-0.57-1.09c-0.19-0.37-0.42-0.74-0.68-1.1c-0.21-0.291-0.45-0.57-0.71-0.841c-0.33,0.021-0.63,0.021-0.89,0
	v2.17c0,0.41,0.06,0.681,0.17,0.82c0.11,0.14,0.33,0.22,0.64,0.239c0.02,0.07,0.04,0.16,0.05,0.25c0.01,0.091,0.01,0.191,0.01,0.281
	c-0.26-0.021-0.53-0.031-0.81-0.031c-0.28,0-0.49-0.01-0.65-0.01H7.08c-0.13,0-0.26,0-0.4,0.01c-0.13,0-0.27,0.011-0.39,0.011
	c-0.13,0.01-0.23,0.01-0.32,0.021c0-0.09,0-0.181,0.01-0.271c0.01-0.091,0.02-0.181,0.05-0.261c0.33-0.02,0.55-0.1,0.67-0.239
	c0.12-0.14,0.18-0.42,0.18-0.82v-5.149c0-0.41-0.06-0.69-0.18-0.84c-0.12-0.15-0.34-0.23-0.67-0.23c-0.02-0.08-0.04-0.16-0.05-0.24
	c-0.01-0.08-0.01-0.17-0.01-0.27c0.12,0.01,0.33,0.01,0.61,0.02C6.86,162.6,7.15,162.6,7.43,162.6z M8.42,163.04
	c-0.13,0.021-0.27,0.04-0.4,0.069v3.42c0.08,0.021,0.16,0.021,0.23,0.021c0.1,0.011,0.2,0.011,0.31,0.011
	c0.33,0,0.65-0.031,0.93-0.101c0.29-0.069,0.54-0.181,0.76-0.33s0.39-0.34,0.51-0.569c0.12-0.23,0.18-0.5,0.18-0.82
	c0-0.51-0.15-0.93-0.46-1.25s-0.82-0.48-1.56-0.48C8.74,163.02,8.57,163.029,8.42,163.04z"/>
<path fill="#FEF9D6" d="M17.54,162.58c0.14-0.03,0.3-0.051,0.48-0.051l2.91,6.671c0.1,0.229,0.19,0.42,0.26,0.56
	c0.08,0.15,0.15,0.26,0.22,0.35c0.07,0.08,0.14,0.15,0.21,0.181c0.07,0.04,0.15,0.06,0.25,0.08c0.03,0.11,0.05,0.19,0.06,0.271
	c0.01,0.069,0.01,0.159,0.01,0.26c-0.06,0-0.15,0-0.27-0.01c-0.11,0-0.24-0.011-0.38-0.021l-0.4-0.011h-0.34
	c-0.1,0-0.21,0-0.35,0.011c-0.14,0.01-0.27,0.01-0.4,0.01c-0.13,0.011-0.25,0.011-0.37,0.011c-0.12,0-0.21,0.01-0.26,0.01
	c0-0.101,0-0.19,0.01-0.28c0.01-0.091,0.03-0.171,0.07-0.24c0.17-0.021,0.3-0.04,0.4-0.069c0.09-0.031,0.16-0.08,0.19-0.15
	c0.03-0.07,0.04-0.16,0.01-0.27c-0.03-0.111-0.08-0.261-0.16-0.451l-0.54-1.25c-0.53,0-1.09,0-1.67,0.01
	c-0.56,0.011-1.08,0.021-1.56,0.041l-0.32,0.84c-0.19,0.48-0.24,0.811-0.17,1c0.07,0.18,0.28,0.29,0.61,0.311
	c0.06,0.139,0.09,0.309,0.09,0.529c-0.14-0.02-0.32-0.029-0.53-0.029c-0.22,0-0.43-0.011-0.63-0.011c-0.2,0-0.4,0-0.57,0.011
	c-0.18,0.01-0.33,0.02-0.44,0.02c0-0.08,0.01-0.17,0.02-0.26c0.01-0.09,0.03-0.18,0.07-0.25c0.11-0.021,0.2-0.061,0.28-0.11
	s0.16-0.12,0.23-0.22s0.14-0.23,0.21-0.381c0.07-0.16,0.15-0.359,0.25-0.609L17.54,162.58z M16.15,167.62h2.77l-0.93-2.181
	c-0.06-0.119-0.11-0.239-0.15-0.34c-0.04-0.1-0.09-0.209-0.13-0.32c-0.04-0.109-0.09-0.219-0.14-0.34
	c-0.03-0.1-0.07-0.199-0.12-0.319c-0.08,0.271-0.16,0.5-0.23,0.7c-0.07,0.209-0.15,0.42-0.22,0.609L16.15,167.62z"/>
<path fill="#FEF9D6" d="M28.59,168.65c0-0.28-0.01-0.49-0.04-0.65c-0.02-0.16-0.07-0.279-0.15-0.359
	c-0.07-0.08-0.18-0.141-0.32-0.16c-0.14-0.021-0.32-0.041-0.55-0.051c-0.02-0.06-0.04-0.15-0.06-0.26s-0.02-0.21-0.02-0.3
	c0.15,0.01,0.38,0.03,0.67,0.03s0.57,0.01,0.82,0.01s0.52,0,0.81-0.01c0.29,0,0.49-0.01,0.62-0.021c0,0.07,0,0.16-0.01,0.271
	c-0.01,0.109-0.03,0.199-0.06,0.279c-0.12,0.01-0.22,0.021-0.29,0.051c-0.07,0.02-0.13,0.08-0.18,0.16
	c-0.04,0.08-0.07,0.199-0.09,0.359c-0.01,0.16-0.02,0.38-0.02,0.65v0.55c0,0.17,0.01,0.329,0.03,0.46c0.02,0.14,0.06,0.27,0.13,0.39
	c-0.35,0.261-0.8,0.479-1.34,0.65c-0.55,0.18-1.17,0.26-1.86,0.26c-0.6,0-1.15-0.101-1.64-0.31c-0.49-0.211-0.92-0.5-1.27-0.881
	c-0.35-0.379-0.63-0.84-0.82-1.369c-0.19-0.53-0.29-1.131-0.29-1.791c0-0.689,0.12-1.289,0.36-1.799
	c0.24-0.521,0.56-0.951,0.96-1.291s0.85-0.6,1.36-0.779c0.5-0.18,1.03-0.26,1.56-0.26c0.59,0,1.13,0.049,1.63,0.16
	c0.5,0.109,0.94,0.239,1.3,0.42c-0.06,0.289-0.09,0.58-0.11,0.89c-0.02,0.3-0.02,0.64-0.02,1.01c-0.2,0.069-0.41,0.11-0.65,0.11
	c-0.02-0.42-0.08-0.771-0.19-1.041c-0.11-0.27-0.26-0.479-0.44-0.639c-0.18-0.15-0.4-0.25-0.64-0.311
	c-0.24-0.061-0.5-0.09-0.78-0.09c-0.52,0-0.97,0.09-1.36,0.279c-0.38,0.19-0.7,0.44-0.95,0.74c-0.25,0.311-0.43,0.67-0.56,1.07
	c-0.12,0.4-0.18,0.82-0.18,1.26c0,0.551,0.06,1.08,0.18,1.561c0.12,0.49,0.31,0.91,0.56,1.279c0.25,0.371,0.56,0.65,0.93,0.86
	s0.8,0.319,1.3,0.319c0.24,0,0.46-0.01,0.65-0.039c0.19-0.02,0.38-0.08,0.58-0.16c0.14-0.061,0.24-0.15,0.31-0.27
	c0.07-0.121,0.1-0.34,0.1-0.65v-0.59H28.59z"/>
<path fill="#FEF9D6" d="M37.52,168.65c0-0.28-0.01-0.49-0.04-0.65c-0.02-0.16-0.07-0.279-0.15-0.359
	c-0.07-0.08-0.18-0.141-0.32-0.16c-0.14-0.021-0.32-0.041-0.55-0.051c-0.02-0.06-0.04-0.15-0.05-0.26
	c-0.01-0.109-0.02-0.21-0.02-0.3c0.15,0.01,0.38,0.03,0.67,0.03s0.57,0.01,0.82,0.01s0.52,0,0.81-0.01c0.28,0,0.49-0.01,0.62-0.021
	c0,0.07,0,0.16-0.01,0.271c-0.01,0.109-0.03,0.199-0.06,0.279c-0.12,0.01-0.22,0.021-0.29,0.051c-0.07,0.02-0.13,0.08-0.18,0.16
	c-0.04,0.08-0.07,0.199-0.08,0.359c-0.01,0.16-0.02,0.38-0.02,0.65v0.55c0,0.17,0.01,0.329,0.03,0.46c0.02,0.14,0.06,0.27,0.13,0.39
	c-0.35,0.261-0.8,0.479-1.34,0.65c-0.55,0.18-1.17,0.26-1.86,0.26c-0.6,0-1.15-0.101-1.64-0.31c-0.49-0.211-0.92-0.5-1.27-0.881
	c-0.35-0.379-0.63-0.84-0.82-1.369c-0.19-0.53-0.29-1.131-0.29-1.791c0-0.689,0.12-1.289,0.36-1.799
	c0.24-0.521,0.56-0.951,0.96-1.291c0.4-0.34,0.85-0.6,1.36-0.779c0.5-0.18,1.03-0.26,1.56-0.26c0.59,0,1.13,0.049,1.63,0.16
	c0.5,0.109,0.94,0.239,1.3,0.42c-0.06,0.289-0.09,0.58-0.11,0.89c-0.02,0.3-0.02,0.64-0.02,1.01c-0.2,0.069-0.41,0.11-0.65,0.11
	c-0.02-0.42-0.08-0.771-0.19-1.041c-0.11-0.27-0.26-0.479-0.44-0.639c-0.18-0.15-0.4-0.25-0.64-0.311
	c-0.24-0.061-0.51-0.09-0.78-0.09c-0.52,0-0.97,0.09-1.36,0.279c-0.38,0.19-0.7,0.44-0.95,0.74c-0.25,0.311-0.43,0.67-0.56,1.07
	c-0.12,0.4-0.18,0.82-0.18,1.26c0,0.551,0.06,1.08,0.18,1.561c0.12,0.49,0.31,0.91,0.56,1.279c0.25,0.36,0.56,0.65,0.93,0.86
	c0.37,0.21,0.8,0.319,1.3,0.319c0.24,0,0.46-0.01,0.65-0.039c0.19-0.02,0.38-0.08,0.58-0.16c0.14-0.061,0.24-0.15,0.31-0.27
	c0.07-0.121,0.1-0.34,0.1-0.65v-0.59H37.52z"/>
<path fill="#FEF9D6" d="M46.05,162.57c0.01,0.14,0.02,0.289,0.04,0.459c0.02,0.171,0.04,0.341,0.06,0.511
	c0.02,0.181,0.04,0.351,0.07,0.51c0.02,0.171,0.05,0.32,0.09,0.45c-0.07,0.061-0.15,0.1-0.24,0.12c-0.09,0.021-0.2,0.03-0.31,0.03
	c-0.02-0.19-0.05-0.371-0.12-0.561c-0.06-0.189-0.17-0.35-0.32-0.5c-0.15-0.15-0.35-0.26-0.6-0.35s-0.57-0.131-0.97-0.131h-0.88
	v3.351h0.51c0.25,0,0.46-0.021,0.64-0.04c0.17-0.029,0.31-0.08,0.42-0.15c0.11-0.069,0.18-0.17,0.23-0.31
	c0.05-0.13,0.07-0.29,0.07-0.489c0.11-0.031,0.2-0.051,0.29-0.07c0.09-0.01,0.19-0.021,0.3-0.021c-0.02,0.21-0.02,0.44-0.02,0.67
	v1.37c0,0.26,0.01,0.5,0.02,0.71c-0.11,0-0.21,0-0.3-0.01c-0.08-0.011-0.17-0.03-0.26-0.05c-0.02-0.211-0.05-0.391-0.1-0.53
	c-0.05-0.14-0.13-0.25-0.24-0.34c-0.11-0.091-0.24-0.14-0.41-0.181c-0.17-0.029-0.38-0.049-0.63-0.049h-0.51v2.209
	c0,0.23,0.01,0.41,0.04,0.561c0.03,0.15,0.08,0.26,0.17,0.35c0.08,0.08,0.19,0.141,0.34,0.18c0.14,0.03,0.33,0.051,0.56,0.051h0.07
	c0.37,0,0.68-0.03,0.92-0.1c0.24-0.07,0.43-0.16,0.58-0.291c0.15-0.129,0.27-0.289,0.37-0.479c0.09-0.19,0.19-0.41,0.27-0.671
	c0.12,0.041,0.22,0.08,0.31,0.121c0.08,0.039,0.16,0.1,0.23,0.17c-0.09,0.279-0.17,0.59-0.23,0.91c-0.06,0.32-0.11,0.619-0.15,0.91
	c-0.12,0-0.27,0-0.45-0.011c-0.17,0-0.37-0.01-0.58-0.01s-0.43-0.011-0.66-0.011h-1.48c-0.3,0-0.6,0-0.9,0.011
	c-0.3,0.01-0.58,0.01-0.84,0.01c-0.27,0.011-0.47,0.011-0.63,0.021c0-0.24,0.02-0.41,0.06-0.53c0.16-0.011,0.3-0.03,0.41-0.069
	c0.11-0.041,0.2-0.101,0.26-0.191c0.06-0.09,0.11-0.209,0.14-0.359c0.03-0.15,0.04-0.34,0.04-0.58v-5.02c0-0.41-0.06-0.68-0.18-0.82
	c-0.12-0.141-0.34-0.221-0.67-0.24c-0.02-0.061-0.04-0.14-0.05-0.24c-0.01-0.09-0.01-0.189-0.01-0.289
	c0.12,0.01,0.28,0.01,0.46,0.02c0.19,0,0.38,0.01,0.58,0.01c0.2,0,0.39,0,0.57,0h0.44c0.84,0,1.53,0,2.06-0.01
	C45.47,162.58,45.84,162.57,46.05,162.57z"/>
<path fill="#FEF9D6" d="M47.95,162.57c0.08,0.01,0.19,0.01,0.31,0.02c0.13,0,0.26,0.01,0.4,0.01c0.14,0,0.28,0,0.43,0h0.42
	c0.27,0,0.54,0,0.81-0.01s0.53-0.01,0.79-0.01c0.54,0,1.08,0.05,1.64,0.15c0.55,0.1,1.05,0.289,1.5,0.57
	c0.44,0.279,0.81,0.68,1.09,1.199c0.28,0.52,0.42,1.2,0.42,2.029c0,0.66-0.08,1.23-0.25,1.701c-0.17,0.47-0.38,0.869-0.65,1.189
	c-0.26,0.32-0.57,0.57-0.9,0.77c-0.34,0.201-0.68,0.34-1.02,0.44s-0.67,0.16-1,0.19c-0.32,0.029-0.6,0.05-0.83,0.05h-0.79
	c-0.3,0-0.6,0-0.9,0.01c-0.3,0-0.58,0.011-0.84,0.011c-0.27,0.01-0.48,0.01-0.63,0.02c0-0.24,0.02-0.41,0.06-0.53
	c0.16-0.01,0.3-0.03,0.41-0.069c0.11-0.041,0.2-0.101,0.26-0.19c0.06-0.091,0.11-0.21,0.14-0.36c0.03-0.15,0.04-0.34,0.04-0.58
	v-5.029c0-0.41-0.06-0.68-0.18-0.82c-0.12-0.141-0.34-0.221-0.67-0.24c-0.02-0.061-0.04-0.14-0.05-0.24
	C47.96,162.76,47.95,162.66,47.95,162.57z M50,169.18c0,0.23,0.01,0.41,0.04,0.561c0.03,0.15,0.08,0.26,0.17,0.35
	c0.08,0.08,0.19,0.141,0.34,0.18c0.14,0.03,0.33,0.051,0.55,0.051c0.49,0,0.94-0.061,1.35-0.18c0.41-0.121,0.77-0.32,1.07-0.591
	c0.3-0.28,0.54-0.649,0.71-1.11c0.17-0.459,0.26-1.039,0.26-1.729c0-0.66-0.1-1.22-0.3-1.69c-0.2-0.459-0.47-0.84-0.8-1.14
	c-0.33-0.29-0.72-0.51-1.15-0.64c-0.43-0.131-0.88-0.2-1.33-0.2c-0.15,0-0.31,0.01-0.48,0.03c-0.18,0.02-0.32,0.05-0.42,0.08
	L50,169.18L50,169.18z"/>
<path fill="#FEF9D6" d="M61.84,162.49c0.46,0,0.85,0.06,1.17,0.17c0.33,0.109,0.57,0.23,0.75,0.369c0,0.24,0,0.511,0.01,0.82
	c0.01,0.311,0.03,0.57,0.06,0.791c-0.09,0.039-0.2,0.069-0.32,0.09c-0.12,0.02-0.25,0.02-0.36,0.02
	c-0.06-0.35-0.14-0.641-0.22-0.859c-0.08-0.221-0.18-0.4-0.29-0.531c-0.11-0.129-0.23-0.209-0.37-0.26
	c-0.13-0.05-0.28-0.07-0.43-0.07c-0.37,0-0.65,0.111-0.87,0.32c-0.21,0.211-0.32,0.51-0.32,0.9c0,0.359,0.09,0.65,0.28,0.88
	s0.42,0.431,0.7,0.61c0.28,0.18,0.58,0.35,0.91,0.51s0.63,0.34,0.91,0.55c0.28,0.21,0.51,0.46,0.7,0.75s0.28,0.66,0.28,1.11
	c0,0.311-0.06,0.609-0.19,0.89c-0.13,0.28-0.3,0.53-0.52,0.74c-0.22,0.21-0.48,0.38-0.78,0.5s-0.63,0.181-0.99,0.181
	c-0.29,0-0.54-0.011-0.75-0.041c-0.22-0.029-0.42-0.07-0.6-0.13c-0.18-0.06-0.37-0.14-0.55-0.239c-0.18-0.101-0.39-0.221-0.62-0.371
	c0.05-0.31,0.08-0.619,0.09-0.93c0.01-0.31,0.02-0.58,0.02-0.81c0.09-0.021,0.2-0.04,0.32-0.06c0.12-0.011,0.24-0.021,0.34-0.021
	c0.02,0.31,0.06,0.59,0.12,0.83c0.06,0.25,0.17,0.45,0.3,0.63c0.13,0.18,0.31,0.311,0.54,0.4c0.22,0.09,0.51,0.14,0.85,0.14
	c0.23,0,0.43-0.03,0.6-0.101c0.17-0.069,0.31-0.16,0.43-0.27c0.11-0.109,0.2-0.25,0.26-0.4c0.06-0.149,0.09-0.31,0.09-0.479
	c0-0.37-0.09-0.66-0.28-0.89c-0.19-0.23-0.42-0.42-0.7-0.59c-0.28-0.17-0.59-0.33-0.92-0.48c-0.33-0.15-0.64-0.33-0.92-0.54
	c-0.28-0.21-0.52-0.47-0.7-0.78c-0.19-0.311-0.28-0.71-0.28-1.21c0-0.319,0.05-0.61,0.17-0.87c0.11-0.27,0.26-0.49,0.46-0.68
	c0.19-0.189,0.43-0.34,0.7-0.439C61.21,162.54,61.51,162.49,61.84,162.49z"/>
<path fill="#FEF9D6" d="M68.2,163.08h-0.62c-0.32,0-0.57,0.04-0.75,0.109c-0.18,0.07-0.33,0.181-0.43,0.311
	c-0.11,0.13-0.18,0.279-0.23,0.45c-0.05,0.17-0.09,0.36-0.13,0.56c-0.09,0-0.19-0.01-0.29-0.02c-0.11-0.01-0.2-0.04-0.27-0.08
	c0.06-0.29,0.11-0.59,0.15-0.92c0.03-0.33,0.05-0.631,0.05-0.92c0.34,0.02,0.79,0.029,1.35,0.029c0.56,0,1.15,0,1.77,0h0.92
	c0.3,0,0.59,0,0.86,0c0.27,0,0.529-0.01,0.76-0.01s0.43-0.01,0.6-0.02c0,0.55,0.021,1.16,0.07,1.83
	c-0.09,0.039-0.189,0.07-0.289,0.08c-0.101,0.02-0.201,0.02-0.301,0.02c-0.02-0.439-0.141-0.79-0.359-1.04
	c-0.221-0.26-0.59-0.39-1.101-0.39h-0.59v6.229c0,0.2,0.01,0.37,0.04,0.511c0.03,0.129,0.07,0.239,0.14,0.319
	c0.07,0.08,0.17,0.13,0.29,0.17c0.13,0.04,0.29,0.06,0.48,0.07c0.04,0.11,0.06,0.29,0.06,0.53c-0.26-0.021-0.53-0.03-0.8-0.03
	s-0.54-0.011-0.8-0.011c-0.26,0-0.54,0-0.83,0.011c-0.29,0-0.55,0.01-0.78,0.03c0-0.24,0.02-0.41,0.06-0.53
	c0.2-0.011,0.36-0.03,0.48-0.07c0.13-0.04,0.23-0.09,0.3-0.17c0.07-0.08,0.12-0.18,0.15-0.319c0.03-0.131,0.04-0.301,0.04-0.511
	V163.08z"/>
<path fill="#FEF9D6" d="M76.2,162.58c0.14-0.03,0.3-0.051,0.479-0.051l2.91,6.671c0.1,0.229,0.189,0.42,0.26,0.56
	c0.08,0.15,0.15,0.26,0.221,0.35c0.07,0.08,0.14,0.15,0.209,0.181c0.07,0.04,0.15,0.06,0.25,0.08c0.031,0.11,0.051,0.19,0.061,0.271
	c0.01,0.069,0.01,0.159,0.01,0.26c-0.07,0-0.16,0-0.27-0.01c-0.109,0-0.24-0.011-0.38-0.021l-0.4-0.011h-0.34
	c-0.101,0-0.21,0-0.351,0.011c-0.129,0-0.27,0.01-0.399,0.01c-0.13,0.011-0.25,0.011-0.37,0.011c-0.119,0-0.21,0.01-0.26,0.01
	c0-0.101,0-0.19,0.01-0.28c0.01-0.091,0.03-0.171,0.07-0.24c0.17-0.021,0.3-0.04,0.4-0.069c0.09-0.031,0.16-0.08,0.189-0.15
	s0.04-0.16,0.01-0.27c-0.029-0.111-0.08-0.261-0.16-0.451l-0.539-1.25c-0.531,0-1.09,0-1.67,0.01
	c-0.561,0.011-1.08,0.021-1.561,0.041l-0.32,0.84c-0.189,0.48-0.25,0.811-0.17,1c0.07,0.18,0.28,0.29,0.61,0.311
	c0.06,0.139,0.09,0.309,0.09,0.529c-0.14-0.02-0.319-0.029-0.53-0.029c-0.21,0-0.43-0.011-0.63-0.011s-0.399,0-0.569,0.011
	c-0.181,0.01-0.33,0.02-0.44,0.02c0-0.08,0.01-0.17,0.021-0.26c0.01-0.09,0.029-0.18,0.069-0.25c0.11-0.021,0.2-0.061,0.28-0.11
	s0.16-0.12,0.23-0.22c0.069-0.1,0.149-0.23,0.209-0.381c0.07-0.16,0.15-0.359,0.25-0.609L76.2,162.58z M74.811,167.62h2.77
	l-0.93-2.181c-0.061-0.119-0.11-0.239-0.15-0.34c-0.04-0.1-0.09-0.209-0.13-0.32c-0.04-0.109-0.091-0.219-0.14-0.34
	c-0.03-0.1-0.07-0.199-0.121-0.319c-0.08,0.271-0.159,0.5-0.229,0.7c-0.069,0.209-0.149,0.42-0.22,0.609L74.811,167.62z"/>
<path fill="#FEF9D6" d="M86.79,162.57c0.01,0.14,0.021,0.289,0.04,0.459c0.02,0.171,0.04,0.341,0.061,0.511
	c0.02,0.181,0.039,0.351,0.069,0.51c0.021,0.171,0.05,0.32,0.09,0.45c-0.069,0.061-0.149,0.1-0.239,0.12s-0.201,0.03-0.311,0.03
	c-0.02-0.19-0.05-0.371-0.12-0.561c-0.06-0.189-0.17-0.35-0.319-0.5c-0.15-0.15-0.351-0.26-0.601-0.35s-0.569-0.131-0.97-0.131
	h-0.84v3.59h0.6c0.25,0,0.46-0.01,0.641-0.039c0.17-0.03,0.31-0.08,0.42-0.15c0.1-0.07,0.18-0.17,0.229-0.31
	c0.05-0.13,0.069-0.29,0.069-0.49c0.111-0.03,0.201-0.06,0.291-0.069c0.09-0.011,0.189-0.021,0.3-0.021
	c-0.021,0.21-0.021,0.44-0.021,0.67v1.37c0,0.26,0.01,0.5,0.021,0.71c-0.11,0-0.21,0-0.3-0.011c-0.09-0.01-0.17-0.02-0.26-0.049
	c-0.021-0.211-0.051-0.391-0.101-0.531c-0.05-0.139-0.13-0.25-0.24-0.34c-0.11-0.08-0.239-0.14-0.409-0.18
	c-0.17-0.029-0.381-0.05-0.631-0.05h-0.6v1.86c0,0.27,0.02,0.479,0.061,0.65c0.039,0.159,0.109,0.289,0.189,0.389
	c0.09,0.101,0.199,0.17,0.34,0.201c0.13,0.039,0.3,0.06,0.5,0.069c0.04,0.11,0.061,0.29,0.061,0.53c-0.19-0.02-0.42-0.03-0.701-0.03
	c-0.279,0-0.56-0.01-0.84-0.01H82.8c-0.159,0-0.31,0-0.46,0.01c-0.15,0-0.29,0.011-0.42,0.011c-0.13,0.01-0.23,0.01-0.311,0.02
	c0-0.24,0.021-0.41,0.061-0.53c0.33-0.021,0.551-0.101,0.67-0.239c0.12-0.141,0.18-0.42,0.18-0.82v-5.17c0-0.41-0.06-0.68-0.18-0.82
	c-0.119-0.141-0.34-0.221-0.67-0.24c-0.04-0.109-0.061-0.29-0.061-0.529c0.131,0.01,0.291,0.01,0.461,0.02
	c0.18,0,0.359,0.01,0.539,0.01c0.181,0,0.371,0,0.541,0h0.5c0.83,0,1.51,0,2.039-0.01C86.221,162.58,86.59,162.57,86.79,162.57z"/>
<path fill="#FEF9D6" d="M93.42,162.57c0.01,0.14,0.02,0.289,0.04,0.459c0.021,0.171,0.04,0.341,0.06,0.511
	c0.021,0.181,0.041,0.351,0.07,0.51c0.02,0.171,0.051,0.32,0.09,0.45c-0.07,0.061-0.15,0.1-0.24,0.12s-0.199,0.03-0.31,0.03
	c-0.021-0.19-0.06-0.371-0.12-0.561c-0.06-0.189-0.17-0.35-0.32-0.5c-0.149-0.15-0.35-0.26-0.6-0.35s-0.57-0.131-0.97-0.131h-0.841
	v3.59h0.601c0.25,0,0.46-0.01,0.63-0.039c0.17-0.03,0.311-0.08,0.42-0.15c0.11-0.07,0.18-0.17,0.23-0.31
	c0.05-0.13,0.07-0.29,0.07-0.49c0.109-0.03,0.199-0.06,0.289-0.069c0.09-0.011,0.181-0.021,0.301-0.021
	c-0.021,0.21-0.03,0.44-0.03,0.67v1.37c0,0.26,0.01,0.5,0.03,0.71c-0.11,0-0.211,0-0.301-0.011c-0.09-0.01-0.17-0.02-0.26-0.049
	c-0.02-0.211-0.05-0.391-0.1-0.531c-0.051-0.139-0.131-0.25-0.24-0.34c-0.109-0.08-0.24-0.14-0.41-0.18
	c-0.17-0.029-0.38-0.05-0.63-0.05h-0.601v1.86c0,0.27,0.021,0.479,0.061,0.65c0.04,0.159,0.11,0.289,0.2,0.389
	c0.09,0.101,0.2,0.17,0.34,0.201c0.13,0.039,0.3,0.06,0.49,0.069c0.04,0.11,0.06,0.29,0.06,0.53c-0.189-0.02-0.42-0.03-0.699-0.03
	c-0.28,0-0.561-0.01-0.84-0.01H89.43c-0.16,0-0.31,0-0.47,0.01c-0.149,0-0.29,0.011-0.42,0.011c-0.13,0.01-0.229,0.01-0.31,0.02
	c0-0.24,0.02-0.41,0.06-0.53c0.33-0.021,0.55-0.101,0.67-0.239c0.12-0.141,0.181-0.42,0.181-0.82v-5.17
	c0-0.41-0.061-0.68-0.181-0.82s-0.34-0.221-0.67-0.24c-0.04-0.109-0.06-0.29-0.06-0.529c0.129,0.01,0.289,0.01,0.459,0.02
	s0.36,0.01,0.541,0.01c0.18,0,0.369,0,0.539,0h0.5c0.83,0,1.51,0,2.041-0.01C92.85,162.58,93.21,162.57,93.42,162.57z"/>
<path fill="#FEF9D6" d="M51.88,157.641c0.09,0.1,0.18,0.18,0.27,0.25c0.09,0.069,0.18,0.119,0.27,0.149
	c0.1,0.04,0.2,0.069,0.33,0.09c0.12,0.021,0.27,0.04,0.45,0.04c0,0.08,0,0.16-0.01,0.25c-0.01,0.09-0.03,0.18-0.06,0.26
	c-0.11,0-0.24,0.01-0.39,0.02c-0.15,0.011-0.31,0.031-0.47,0.051s-0.31,0.04-0.46,0.07c-0.15,0.029-0.26,0.06-0.36,0.09
	c-0.25-0.34-0.51-0.66-0.77-0.961c-0.04-0.049-0.09-0.1-0.14-0.149c-0.31,0.37-0.62,0.649-0.94,0.83c-0.36,0.2-0.76,0.3-1.21,0.3
	c-0.46,0-0.84-0.07-1.16-0.22c-0.31-0.149-0.56-0.34-0.76-0.58c-0.19-0.239-0.33-0.51-0.41-0.81c-0.08-0.301-0.13-0.59-0.13-0.881
	c0-0.289,0.04-0.56,0.13-0.81s0.21-0.479,0.36-0.7c0.15-0.209,0.33-0.41,0.53-0.58c0.15-0.119,0.29-0.24,0.45-0.34l-0.09-0.16
	c-0.11-0.24-0.2-0.49-0.27-0.74c-0.06-0.25-0.1-0.51-0.1-0.789c0-0.211,0.04-0.42,0.13-0.631c0.08-0.209,0.21-0.39,0.37-0.549
	c0.16-0.16,0.36-0.291,0.59-0.381c0.23-0.09,0.5-0.14,0.8-0.14c0.33,0,0.61,0.03,0.84,0.101c0.23,0.059,0.47,0.17,0.72,0.299
	c-0.03,0.201-0.05,0.41-0.06,0.65c-0.01,0.23-0.01,0.46,0,0.689c-0.09,0.041-0.19,0.061-0.3,0.07c-0.11,0.01-0.21,0.021-0.3,0.021
	c-0.03-0.49-0.12-0.83-0.27-1.03c-0.15-0.199-0.38-0.3-0.69-0.3c-0.27,0-0.49,0.09-0.65,0.26c-0.17,0.17-0.25,0.42-0.25,0.729
	c0,0.17,0.02,0.33,0.05,0.48c0.03,0.15,0.09,0.311,0.17,0.48c0.08,0.17,0.19,0.35,0.33,0.56s0.32,0.45,0.54,0.72
	c0.12,0.15,0.26,0.32,0.41,0.5s0.34,0.4,0.57,0.66c0.22,0.26,0.49,0.561,0.81,0.91c0.05,0.051,0.1,0.109,0.15,0.16
	c0.19-0.301,0.34-0.561,0.44-0.801c0.12-0.27,0.21-0.529,0.28-0.779c0.08-0.301,0.05-0.51-0.07-0.65
	c-0.13-0.129-0.39-0.24-0.79-0.33c-0.02-0.08-0.04-0.16-0.06-0.24c-0.01-0.08-0.02-0.159-0.02-0.239
	c0.16,0.021,0.35,0.021,0.56,0.03c0.21,0,0.42,0,0.61,0s0.4,0,0.62,0c0.22-0.01,0.4-0.01,0.53-0.03c0,0.069,0,0.149-0.01,0.239
	c-0.01,0.091-0.02,0.17-0.03,0.23c-0.24,0.08-0.41,0.2-0.52,0.33c-0.11,0.141-0.2,0.34-0.27,0.609c-0.1,0.341-0.23,0.681-0.38,1.021
	c-0.13,0.289-0.3,0.629-0.52,1.01C51.44,157.17,51.65,157.4,51.88,157.641z M48.55,158.04c0.34,0,0.65-0.06,0.93-0.181
	c0.23-0.109,0.46-0.27,0.7-0.489c-0.08-0.11-0.17-0.21-0.26-0.31c-0.25-0.301-0.51-0.59-0.77-0.881c-0.26-0.289-0.52-0.58-0.78-0.89
	c-0.22-0.261-0.42-0.511-0.6-0.75l-0.14-0.181c-0.18,0.19-0.33,0.41-0.47,0.641c-0.17,0.3-0.25,0.66-0.25,1.09
	c0,0.32,0.04,0.6,0.13,0.84s0.21,0.44,0.35,0.61c0.15,0.17,0.32,0.29,0.52,0.37C48.12,158,48.33,158.04,48.55,158.04z"/>
<rect x="55.63" y="154.12" fill="#FEF9D6" width="38.24" height="1.28"/>
<rect x="5.55" y="154.12" fill="#FEF9D6" width="37.98" height="1.28"/>
</svg>
